<svg width="666" height="667" viewBox="0 0 666 667" fill="none" xmlns="http://www.w3.org/2000/svg">
<path d="M242.933 8.00003C200.133 12.5334 158.8 27.0667 123.333 50.2667C74.5332 82.2667 36.7998 130.8 18.6665 185.067C1.46649 236.267 -0.266843 287.467 13.4665 338.667C42.3998 446.933 134.533 523.333 248.667 533.467C307.467 538.667 375.333 519.467 423.2 484.133L430.933 478.4L521.2 568.4L611.333 658.4L619.333 660.8C638.4 666.267 656.133 655.333 660.267 635.6C661.6 629.2 661.467 627.067 659.467 620.4C657.067 612.8 655.333 610.933 567.067 522.533L477.067 432.267L485.733 420.133C507.2 390.267 524.267 346.8 530 307.333C532.667 288.933 532.8 253.333 530.133 234.533C519.6 160 477.733 93.2 415.733 52C381.467 29.3334 349.467 16.6667 309.333 10C294 7.4667 258.133 6.40003 242.933 8.00003ZM308.4 76C327.6 80 340.4 84.4 356 92.2667C381.333 105.067 400.133 119.333 417.467 139.067C487.2 218 483.6 336.267 409.333 410.667C380.667 439.2 347.867 456.8 306.667 465.467C287.733 469.467 252.133 469.733 233.333 466.133C180.133 455.733 136.533 427.867 105.066 383.867C90.3998 363.467 80.3998 340.4 73.8665 312.533C70.5332 298 70.1332 294.4 70.1332 270.667C70.1332 248.8 70.5332 242.667 73.0665 231.6C82.2665 190.267 98.7998 159.733 128 130.533C160 98.4 198 79.7334 244 73.3334C258.267 71.3334 293.467 72.8 308.4 76Z" fill="#5F5F5F"/>
</svg>
